<?xml version="1.0" encoding="UTF-8"?>
<!--Generator: Apple Native CoreSVG 336-->
<!DOCTYPE svg
PUBLIC "-//W3C//DTD SVG 1.1//EN"
       "http://www.w3.org/Graphics/SVG/1.1/DTD/svg11.dtd">
<svg version="1.1" xmlns="http://www.w3.org/2000/svg" xmlns:xlink="http://www.w3.org/1999/xlink" viewBox="0 0 3300 2200">
 <!--glyph: "", point size: 100.0, font version: "20.0d10e1", template writer version: "138.0.0"-->
 <style>.monochrome-0 {-sfsymbols-motion-group:1;-sfsymbols-indices:0 1;-sfsymbols-layer-tags:36f537bc3c2fdae rectangle}
.monochrome-1 {-sfsymbols-motion-group:0;-sfsymbols-always-pulses:true;-sfsymbols-layer-tags:36f537bc3c2fdae}

.multicolor-0:tintColor {-sfsymbols-motion-group:1;-sfsymbols-indices:0 1;-sfsymbols-layer-tags:36f537bc3c2fdae rectangle}
.multicolor-1:tintColor {-sfsymbols-motion-group:0;-sfsymbols-always-pulses:true;-sfsymbols-layer-tags:36f537bc3c2fdae}

.hierarchical-0:secondary {-sfsymbols-motion-group:1;-sfsymbols-indices:0 1;-sfsymbols-layer-tags:36f537bc3c2fdae rectangle}
.hierarchical-1:primary {-sfsymbols-motion-group:0;-sfsymbols-layer-tags:36f537bc3c2fdae}

.shapeGroupLayer-0 {-sfsymbols-fill-action:draw;-sfsymbols-indices:2 3}
.shapeGroupLayer-1 {-sfsymbols-fill-action:erase;-sfsymbols-indices:4}
.shapeGroupLayer-2 {-sfsymbols-fill-action:draw;-sfsymbols-indices:5 6 7}

.SFSymbolsPreviewWireframe {fill:none;opacity:1.0;stroke:black;stroke-width:0.5}
</style>
 <g id="Notes">
  <rect height="2200" id="artboard" style="fill:white;opacity:1" width="3300" x="0" y="0"/>
  <line style="fill:none;stroke:black;opacity:1;stroke-width:0.5;" x1="263" x2="3036" y1="292" y2="292"/>
  <text style="stroke:none;fill:black;font-family:sans-serif;font-size:13;font-weight:bold;" transform="matrix(1 0 0 1 263 322)">Weight/Scale Variations</text>
  <text style="stroke:none;fill:black;font-family:sans-serif;font-size:13;text-anchor:middle;" transform="matrix(1 0 0 1 559.711 322)">Ultralight</text>
  <text style="stroke:none;fill:black;font-family:sans-serif;font-size:13;text-anchor:middle;" transform="matrix(1 0 0 1 856.422 322)">Thin</text>
  <text style="stroke:none;fill:black;font-family:sans-serif;font-size:13;text-anchor:middle;" transform="matrix(1 0 0 1 1153.13 322)">Light</text>
  <text style="stroke:none;fill:black;font-family:sans-serif;font-size:13;text-anchor:middle;" transform="matrix(1 0 0 1 1449.84 322)">Regular</text>
  <text style="stroke:none;fill:black;font-family:sans-serif;font-size:13;text-anchor:middle;" transform="matrix(1 0 0 1 1746.56 322)">Medium</text>
  <text style="stroke:none;fill:black;font-family:sans-serif;font-size:13;text-anchor:middle;" transform="matrix(1 0 0 1 2043.27 322)">Semibold</text>
  <text style="stroke:none;fill:black;font-family:sans-serif;font-size:13;text-anchor:middle;" transform="matrix(1 0 0 1 2339.98 322)">Bold</text>
  <text style="stroke:none;fill:black;font-family:sans-serif;font-size:13;text-anchor:middle;" transform="matrix(1 0 0 1 2636.69 322)">Heavy</text>
  <text style="stroke:none;fill:black;font-family:sans-serif;font-size:13;text-anchor:middle;" transform="matrix(1 0 0 1 2933.4 322)">Black</text>
  <line style="fill:none;stroke:black;opacity:1;stroke-width:0.5;" x1="263" x2="3036" y1="1903" y2="1903"/>
  <g transform="matrix(0.2 0 0 0.2 263 1933)">
   <path d="m46.2402 4.15039c21.7773 0 39.4531-17.627 39.4531-39.4043s-17.6758-39.4043-39.4531-39.4043c-21.7285 0-39.4043 17.627-39.4043 39.4043s17.6758 39.4043 39.4043 39.4043Zm0-7.42188c-17.6758 0-31.9336-14.3066-31.9336-31.9824s14.2578-31.9824 31.9336-31.9824 31.9824 14.3066 31.9824 31.9824-14.3066 31.9824-31.9824 31.9824Zm-17.9688-31.9824c0 2.14844 1.51367 3.61328 3.75977 3.61328h10.498v10.5957c0 2.19727 1.46484 3.71094 3.61328 3.71094 2.24609 0 3.71094-1.51367 3.71094-3.71094v-10.5957h10.5957c2.19727 0 3.71094-1.46484 3.71094-3.61328 0-2.19727-1.51367-3.71094-3.71094-3.71094h-10.5957v-10.5469c0-2.24609-1.46484-3.75977-3.71094-3.75977-2.14844 0-3.61328 1.51367-3.61328 3.75977v10.5469h-10.498c-2.24609 0-3.75977 1.51367-3.75977 3.71094Z"/>
  </g>
  <g transform="matrix(0.2 0 0 0.2 281.506 1933)">
   <path d="m58.5449 14.5508c27.4902 0 49.8047-22.3145 49.8047-49.8047s-22.3145-49.8047-49.8047-49.8047-49.8047 22.3145-49.8047 49.8047 22.3145 49.8047 49.8047 49.8047Zm0-8.30078c-22.9492 0-41.5039-18.5547-41.5039-41.5039s18.5547-41.5039 41.5039-41.5039 41.5039 18.5547 41.5039 41.5039-18.5547 41.5039-41.5039 41.5039Zm-22.6562-41.5039c0 2.39258 1.66016 4.00391 4.15039 4.00391h14.3555v14.4043c0 2.44141 1.66016 4.15039 4.05273 4.15039 2.44141 0 4.15039-1.66016 4.15039-4.15039v-14.4043h14.4043c2.44141 0 4.15039-1.61133 4.15039-4.00391 0-2.44141-1.70898-4.15039-4.15039-4.15039h-14.4043v-14.3555c0-2.49023-1.70898-4.19922-4.15039-4.19922-2.39258 0-4.05273 1.70898-4.05273 4.19922v14.3555h-14.3555c-2.49023 0-4.15039 1.70898-4.15039 4.15039Z"/>
  </g>
  <g transform="matrix(0.2 0 0 0.2 304.924 1933)">
   <path d="m74.8535 28.3203c35.1074 0 63.623-28.4668 63.623-63.5742s-28.5156-63.623-63.623-63.623-63.5742 28.5156-63.5742 63.623 28.4668 63.5742 63.5742 63.5742Zm0-9.08203c-30.127 0-54.4922-24.3652-54.4922-54.4922s24.3652-54.4922 54.4922-54.4922 54.4922 24.3652 54.4922 54.4922-24.3652 54.4922-54.4922 54.4922Zm-28.8574-54.4922c0 2.58789 1.85547 4.39453 4.58984 4.39453h19.7266v19.7754c0 2.68555 1.85547 4.58984 4.44336 4.58984 2.68555 0 4.54102-1.85547 4.54102-4.58984v-19.7754h19.7754c2.68555 0 4.58984-1.80664 4.58984-4.39453 0-2.73438-1.85547-4.58984-4.58984-4.58984h-19.7754v-19.7266c0-2.73438-1.85547-4.63867-4.54102-4.63867-2.58789 0-4.44336 1.9043-4.44336 4.63867v19.7266h-19.7266c-2.73438 0-4.58984 1.85547-4.58984 4.58984Z"/>
  </g>
  <text style="stroke:none;fill:black;font-family:sans-serif;font-size:13;font-weight:bold;" transform="matrix(1 0 0 1 263 1953)">Design Variations</text>
  <text style="stroke:none;fill:black;font-family:sans-serif;font-size:13;" transform="matrix(1 0 0 1 263 1971)">Symbols are supported in up to nine weights and three scales.</text>
  <text style="stroke:none;fill:black;font-family:sans-serif;font-size:13;" transform="matrix(1 0 0 1 263 1989)">For optimal layout with text and other symbols, vertically align</text>
  <text style="stroke:none;fill:black;font-family:sans-serif;font-size:13;" transform="matrix(1 0 0 1 263 2007)">symbols with the adjacent text.</text>
  <line style="fill:none;stroke:#00AEEF;stroke-width:0.5;opacity:1.0;" x1="776" x2="776" y1="1919" y2="1933"/>
  <g transform="matrix(0.2 0 0 0.2 776 1933)">
   <path d="m16.5527 0.78125c2.58789 0 3.85742-0.976562 4.78516-3.71094l6.29883-17.2363h28.8086l6.29883 17.2363c0.927734 2.73438 2.19727 3.71094 4.73633 3.71094 2.58789 0 4.24805-1.5625 4.24805-4.00391 0-0.830078-0.146484-1.61133-0.537109-2.63672l-22.9004-60.9863c-1.12305-2.97852-3.125-4.49219-6.25-4.49219-3.02734 0-5.07812 1.46484-6.15234 4.44336l-22.9004 61.084c-0.390625 1.02539-0.537109 1.80664-0.537109 2.63672 0 2.44141 1.5625 3.95508 4.10156 3.95508Zm13.4766-28.3691 11.8652-32.8613h0.244141l11.8652 32.8613Z"/>
  </g>
  <line style="fill:none;stroke:#00AEEF;stroke-width:0.5;opacity:1.0;" x1="792.836" x2="792.836" y1="1919" y2="1933"/>
  <text style="stroke:none;fill:black;font-family:sans-serif;font-size:13;font-weight:bold;" transform="matrix(1 0 0 1 776 1953)">Margins</text>
  <text style="stroke:none;fill:black;font-family:sans-serif;font-size:13;" transform="matrix(1 0 0 1 776 1971)">Leading and trailing margins on the left and right side of each symbol</text>
  <text style="stroke:none;fill:black;font-family:sans-serif;font-size:13;" transform="matrix(1 0 0 1 776 1989)">can be adjusted by modifying the x-location of the margin guidelines.</text>
  <text style="stroke:none;fill:black;font-family:sans-serif;font-size:13;" transform="matrix(1 0 0 1 776 2007)">Modifications are automatically applied proportionally to all</text>
  <text style="stroke:none;fill:black;font-family:sans-serif;font-size:13;" transform="matrix(1 0 0 1 776 2025)">scales and weights.</text>
  <g transform="matrix(0.2 0 0 0.2 1289 1933)">
   <path d="m14.209 9.32617 8.49609 8.54492c4.29688 4.3457 9.22852 4.05273 13.8672-1.07422l53.4668-58.9355-4.83398-4.88281-53.0762 58.3984c-1.75781 2.00195-3.41797 2.49023-5.76172 0.146484l-5.85938-5.81055c-2.34375-2.29492-1.80664-4.00391 0.195312-5.81055l57.373-54.0039-4.88281-4.83398-57.959 54.4434c-4.93164 4.58984-5.32227 9.47266-1.02539 13.8184Zm32.0801-90.9668c-2.09961 2.05078-2.24609 4.93164-1.07422 6.88477 1.17188 1.80664 3.4668 2.97852 6.68945 2.14844 7.32422-1.70898 14.9414-2.00195 22.0703 2.68555l-2.92969 7.27539c-1.70898 4.15039-0.830078 7.08008 1.85547 9.81445l11.4746 11.5723c2.44141 2.44141 4.49219 2.53906 7.32422 2.05078l5.32227-0.976562 3.32031 3.36914-0.195312 2.7832c-0.195312 2.49023 0.439453 4.39453 2.88086 6.78711l3.80859 3.71094c2.39258 2.39258 5.46875 2.53906 7.8125 0.195312l14.5508-14.5996c2.34375-2.34375 2.24609-5.32227-0.146484-7.71484l-3.85742-3.80859c-2.39258-2.39258-4.24805-3.17383-6.64062-2.97852l-2.88086 0.244141-3.22266-3.17383 1.2207-5.61523c0.634766-2.83203-0.146484-5.0293-3.07617-7.95898l-10.9863-10.9375c-16.6992-16.6016-38.8672-16.2109-53.3203-1.75781Zm7.4707 1.85547c12.1582-8.88672 28.6133-7.37305 39.7461 3.75977l12.1582 12.0605c1.17188 1.17188 1.36719 2.09961 1.02539 3.80859l-1.61133 7.42188 7.51953 7.42188 4.93164-0.292969c1.26953-0.0488281 1.66016 0.0488281 2.63672 1.02539l2.88086 2.88086-12.207 12.207-2.88086-2.88086c-0.976562-0.976562-1.12305-1.36719-1.07422-2.68555l0.341797-4.88281-7.4707-7.42188-7.61719 1.26953c-1.61133 0.341797-2.34375 0.195312-3.56445-0.976562l-10.0098-10.0098c-1.26953-1.17188-1.41602-2.00195-0.634766-3.85742l4.39453-10.4492c-7.8125-7.27539-17.9688-10.4004-28.125-7.42188-0.78125 0.195312-1.07422-0.439453-0.439453-0.976562Z"/>
  </g>
  <text style="stroke:none;fill:black;font-family:sans-serif;font-size:13;font-weight:bold;" transform="matrix(1 0 0 1 1289 1953)">Exporting</text>
  <text style="stroke:none;fill:black;font-family:sans-serif;font-size:13;" transform="matrix(1 0 0 1 1289 1971)">Symbols should be outlined when exporting to ensure the</text>
  <text style="stroke:none;fill:black;font-family:sans-serif;font-size:13;" transform="matrix(1 0 0 1 1289 1989)">design is preserved when submitting to Xcode.</text>
  <text id="template-version" style="stroke:none;fill:black;font-family:sans-serif;font-size:13;text-anchor:end;" transform="matrix(1 0 0 1 3036 1933)">Template v.6.0</text>
  <text style="stroke:none;fill:black;font-family:sans-serif;font-size:13;text-anchor:end;" transform="matrix(1 0 0 1 3036 1951)">Requires Xcode 16 or greater</text>
  <text id="descriptive-name" style="stroke:none;fill:black;font-family:sans-serif;font-size:13;text-anchor:end;" transform="matrix(1 0 0 1 3036 1969)">Generated from rectangle</text>
  <text style="stroke:none;fill:black;font-family:sans-serif;font-size:13;text-anchor:end;" transform="matrix(1 0 0 1 3036 1987)">Typeset at 100.0 points</text>
  <text style="stroke:none;fill:black;font-family:sans-serif;font-size:13;" transform="matrix(1 0 0 1 263 726)">Small</text>
  <text style="stroke:none;fill:black;font-family:sans-serif;font-size:13;" transform="matrix(1 0 0 1 263 1156)">Medium</text>
  <text style="stroke:none;fill:black;font-family:sans-serif;font-size:13;" transform="matrix(1 0 0 1 263 1586)">Large</text>
 </g>
 <g id="Guides">
  <g id="H-reference" style="fill:#27AAE1;stroke:none;" transform="matrix(1 0 0 1 339 696)">
   <path d="M0.993654 0L3.63775 0L29.3281-67.1323L30.0303-67.1323L30.0303-70.459L28.1226-70.459ZM11.6885-24.4799L46.9815-24.4799L46.2315-26.7285L12.4385-26.7285ZM55.1196 0L57.7637 0L30.6382-70.459L29.4326-70.459L29.4326-67.1323Z"/>
  </g>
  <line id="Baseline-S" style="fill:none;stroke:#27AAE1;opacity:1;stroke-width:0.5;" x1="263" x2="3036" y1="696" y2="696"/>
  <line id="Capline-S" style="fill:none;stroke:#27AAE1;opacity:1;stroke-width:0.5;" x1="263" x2="3036" y1="625.541" y2="625.541"/>
  <g id="H-reference" style="fill:#27AAE1;stroke:none;" transform="matrix(1 0 0 1 339 1126)">
   <path d="M0.993654 0L3.63775 0L29.3281-67.1323L30.0303-67.1323L30.0303-70.459L28.1226-70.459ZM11.6885-24.4799L46.9815-24.4799L46.2315-26.7285L12.4385-26.7285ZM55.1196 0L57.7637 0L30.6382-70.459L29.4326-70.459L29.4326-67.1323Z"/>
  </g>
  <line id="Baseline-M" style="fill:none;stroke:#27AAE1;opacity:1;stroke-width:0.5;" x1="263" x2="3036" y1="1126" y2="1126"/>
  <line id="Capline-M" style="fill:none;stroke:#27AAE1;opacity:1;stroke-width:0.5;" x1="263" x2="3036" y1="1055.54" y2="1055.54"/>
  <g id="H-reference" style="fill:#27AAE1;stroke:none;" transform="matrix(1 0 0 1 339 1556)">
   <path d="M0.993654 0L3.63775 0L29.3281-67.1323L30.0303-67.1323L30.0303-70.459L28.1226-70.459ZM11.6885-24.4799L46.9815-24.4799L46.2315-26.7285L12.4385-26.7285ZM55.1196 0L57.7637 0L30.6382-70.459L29.4326-70.459L29.4326-67.1323Z"/>
  </g>
  <line id="Baseline-L" style="fill:none;stroke:#27AAE1;opacity:1;stroke-width:0.5;" x1="263" x2="3036" y1="1556" y2="1556"/>
  <line id="Capline-L" style="fill:none;stroke:#27AAE1;opacity:1;stroke-width:0.5;" x1="263" x2="3036" y1="1485.54" y2="1485.54"/>
  <line id="right-margin-Black-S" style="fill:none;stroke:#00AEEF;stroke-width:0.5;opacity:1.0;" x1="2989.45" x2="2989.45" y1="600.785" y2="720.121"/>
  <line id="left-margin-Black-S" style="fill:none;stroke:#00AEEF;stroke-width:0.5;opacity:1.0;" x1="2877.35" x2="2877.35" y1="600.785" y2="720.121"/>
  <line id="right-margin-Regular-S" style="fill:none;stroke:#00AEEF;stroke-width:0.5;opacity:1.0;" x1="1504.9" x2="1504.9" y1="600.785" y2="720.121"/>
  <line id="left-margin-Regular-S" style="fill:none;stroke:#00AEEF;stroke-width:0.5;opacity:1.0;" x1="1394.79" x2="1394.79" y1="600.785" y2="720.121"/>
  <line id="right-margin-Ultralight-S" style="fill:none;stroke:#00AEEF;stroke-width:0.5;opacity:1.0;" x1="613.72" x2="613.72" y1="600.785" y2="720.121"/>
  <line id="left-margin-Ultralight-S" style="fill:none;stroke:#00AEEF;stroke-width:0.5;opacity:1.0;" x1="505.702" x2="505.702" y1="600.785" y2="720.121"/>
 </g>
 <g id="Symbols">
  <g id="Black-S" transform="matrix(1 0 0 1 2877.35 696)">
   <path class="SFSymbolsPreviewWireframe" d="M25 2.92969L87.1094 2.92969C96.6797 2.92969 102.344-2.73438 102.344-12.3047L102.344-58.1055C102.344-67.6758 96.6797-73.3398 87.1094-73.3398L25-73.3398C15.4297-73.3398 9.76562-67.6758 9.76562-58.1055L9.76562-12.3047C9.76562-2.73438 15.4297 2.92969 25 2.92969ZM27.2461-11.2305C25-11.2305 23.9258-12.1094 23.9258-14.5508L23.9258-55.8594C23.9258-58.3008 25-59.1797 27.2461-59.1797L84.8633-59.1797C87.1094-59.1797 88.1836-58.3008 88.1836-55.8594L88.1836-14.5508C88.1836-12.1094 87.1094-11.2305 84.8633-11.2305ZM38.1916-54.8828C32.9819-54.8828 28.8686-50.8045 28.8686-45.6312C28.8686-40.4534 33.0108-36.2838 38.1916-36.2838C42.4424-36.2838 42.772-37.7069 44.6617-37.7069C45.1541-37.7069 45.4516-37.6047 46.1405-37.2328L45.8799-37.3688C48.0548-36.1724 48.672-35.7784 49.0379-34.4551L49.4939-32.8351C50.2425-30.1014 51.6586-28.6286 54.5223-27.581L72.2436-21.1868C78.1689-19.0374 82.5079-20.4562 83.2422-24.5589L49.5918-42.3064C47.9357-43.1681 47.5345-43.9722 47.5345-45.6312C47.5345-50.803 43.4242-54.8828 38.1916-54.8828ZM38.1627-48.3243C39.6691-48.3243 40.9151-47.0478 40.9151-45.6023C40.9151-44.0595 39.6691-42.8468 38.1627-42.8468C36.7006-42.8468 35.4849-44.0595 35.4849-45.6023C35.4849-47.0478 36.7006-48.3243 38.1627-48.3243ZM38.1916-13.3525C44.0744-13.3525 48.7463-17.962 48.7463-23.8159C48.7463-25.2054 48.8388-25.3959 50.1338-26.0709L84.5097-44.1895C84.1635-49.7766 78.8165-51.9205 71.8346-49.4019L54.1132-43.0077C50.8863-41.8425 49.2121-40.0554 48.3324-36.9324L47.8764-35.314C47.6402-34.4223 47.4798-34.3348 45.2925-33.1452L45.5335-33.2706C45.0839-33.0039 44.9528-32.952 44.6632-32.952C43.1555-32.952 42.2729-34.3751 38.1916-34.3751C32.3317-34.3751 27.6568-29.6469 27.6568-23.8159C27.6568-17.9605 32.3317-13.3525 38.1916-13.3525ZM38.1916-14.5643C43.4242-14.5643 47.5345-18.6442 47.5345-23.8159C47.5345-25.4749 47.9357-26.279 49.5918-27.1407L83.2422-44.8882C82.5079-48.9909 78.1689-50.4067 72.2436-48.2604L54.5223-41.8662C51.6586-40.8186 50.2455-39.3458 49.4939-36.6121L49.0379-34.992C48.672-33.6687 48.0548-33.2747 45.8799-32.0783L46.1405-32.2143C45.4516-31.8424 45.1541-31.7403 44.6617-31.7403C42.772-31.7403 42.4424-33.1634 38.1916-33.1634C33.0108-33.1634 28.8686-28.9937 28.8686-23.8159C28.8686-18.6427 32.9819-14.5643 38.1916-14.5643ZM38.1627-21.1228C36.7006-21.1228 35.4849-22.3993 35.4849-23.8449C35.4849-25.3876 36.7006-26.6003 38.1627-26.6003C39.6691-26.6003 40.9151-25.3876 40.9151-23.8449C40.9151-22.3993 39.6691-21.1228 38.1627-21.1228ZM54.8138-34.8691C53.9946-34.8691 53.2425-35.5633 53.2425-36.4403C53.2425-37.3418 53.9946-38.045 54.8138-38.045C55.6863-38.045 56.4398-37.3418 56.4398-36.4403C56.4398-35.5663 55.6863-34.8691 54.8138-34.8691Z"/>
  </g>
  <g id="Regular-S" transform="matrix(1 0 0 1 1394.79 696)">
   <path class="SFSymbolsPreviewWireframe" d="M22.2168 0.390625L87.8906 0.390625C96.2402 0.390625 100.342-3.71094 100.342-11.9141L100.342-58.4961C100.342-66.6992 96.2402-70.8008 87.8906-70.8008L22.2168-70.8008C13.916-70.8008 9.76562-66.6992 9.76562-58.4961L9.76562-11.9141C9.76562-3.71094 13.916 0.390625 22.2168 0.390625ZM22.3145-6.68945C18.7988-6.68945 16.7969-8.59375 16.7969-12.2559L16.7969-58.1543C16.7969-61.8652 18.7988-63.7207 22.3145-63.7207L87.793-63.7207C91.3086-63.7207 93.3105-61.8652 93.3105-58.1543L93.3105-12.2559C93.3105-8.59375 91.3086-6.68945 87.793-6.68945ZM37.6986-54.0507C32.984-54.0507 29.2414-50.294 29.2414-45.5808C29.2414-40.88 32.9962-37.0991 37.6986-37.0991C41.5829-37.0991 41.9484-38.4644 43.6787-38.4644C44.1138-38.4644 44.3945-38.379 44.9996-38.0799L46.2611-37.4262C48.1356-36.4367 48.7124-35.9742 49.0378-34.8046L49.442-33.3175C50.1278-30.8717 51.3665-29.554 53.9646-28.6309L70.8799-22.5966C76.4555-20.6034 80.1556-21.596 80.8674-25.1876L47.8445-42.626C46.4851-43.3407 46.1926-44.0131 46.1926-45.5808C46.1926-50.3078 42.4221-54.0507 37.6986-54.0507ZM37.6865-49.2415C39.7242-49.2415 41.3575-47.5805 41.3575-45.5687C41.3575-43.5296 39.7242-41.896 37.6865-41.896C35.71-41.896 34.0748-43.5296 34.0748-45.5687C34.0748-47.5805 35.71-49.2415 37.6865-49.2415ZM37.6986-13.7181C43.3119-13.7181 47.8205-18.1853 47.8205-23.8159C47.8205-24.7398 47.9371-24.9948 48.7045-25.3898L82.5996-43.2819C82.2695-49.1297 77.1596-50.7764 70.3209-48.327L53.4056-42.2927C50.3251-41.2058 48.7206-39.4841 47.8784-36.5159L47.4742-35.015C47.3191-34.4607 47.0215-34.2248 45.5124-33.4086L44.4317-32.8523C44.0422-32.6402 43.8858-32.5603 43.6648-32.5603C42.5083-32.5603 41.6638-33.9255 37.6986-33.9255C32.0942-33.9255 27.6135-29.4082 27.6135-23.8159C27.6135-18.1992 32.0942-13.7181 37.6986-13.7181ZM37.6986-15.3461C42.4221-15.3461 46.1926-19.0889 46.1926-23.8159C46.1926-25.3837 46.4851-26.0561 47.8445-26.7707L80.8674-44.2091C80.1556-47.8007 76.4555-48.7917 70.8799-46.8002L53.9646-40.7658C51.3665-39.8427 50.1294-38.525 49.442-36.0792L49.0378-34.5921C48.7124-33.4226 48.1356-32.96 46.2611-31.9705L44.9996-31.3169C44.3945-31.0177 44.1138-30.9323 43.6787-30.9323C41.9484-30.9323 41.5829-32.2976 37.6986-32.2976C32.9962-32.2976 29.2414-28.5168 29.2414-23.8159C29.2414-19.1028 32.984-15.3461 37.6986-15.3461ZM37.6865-20.1553C35.71-20.1553 34.0748-21.8163 34.0748-23.828C34.0748-25.8672 35.71-27.5007 37.6865-27.5007C39.7242-27.5007 41.3575-25.8672 41.3575-23.828C41.3575-21.8163 39.7242-20.1553 37.6865-20.1553ZM54.3598-34.4185C53.5026-34.4185 52.7155-35.152 52.7155-36.0628C52.7155-36.998 53.5026-37.7363 54.3598-37.7363C55.2829-37.7363 56.0561-36.998 56.0561-36.0628C56.0561-35.1536 55.2829-34.4185 54.3598-34.4185Z"/>
  </g>
  <g id="Ultralight-S" transform="matrix(1 0 0 1 505.702 696)">
   <path class="SFSymbolsPreviewWireframe" d="M19.7647-1.65282L88.2539-1.65282C94.7871-1.65282 98.2529-5.20946 98.2529-11.6416L98.2529-58.8594C98.2529-65.2915 94.7871-68.8482 88.2539-68.8482L19.7647-68.8482C13.2349-68.8482 9.76562-65.3823 9.76562-58.8594L9.76562-11.6416C9.76562-5.11864 13.2349-1.65282 19.7647-1.65282ZM19.8623-3.87405C14.6665-3.87405 11.9834-6.55031 11.9834-11.7564L11.9834-58.7446C11.9834-63.9541 14.6665-66.6269 19.8623-66.6269L88.1562-66.6269C93.1704-66.6269 96.0351-63.9541 96.0351-58.7446L96.0351-11.7564C96.0351-6.55031 93.1704-3.87405 88.1562-3.87405ZM37.5239-52.9841C33.4372-52.9841 30.1575-49.6699 30.1575-45.5444C30.1575-41.4434 33.4372-38.1536 37.5239-38.1536C40.9933-38.1536 41.9551-39.9425 43.4801-39.9425C43.7988-39.9425 44.0673-39.8692 44.4318-39.6827L48.7295-37.3627C49.8616-36.7628 50.1541-36.2357 50.3751-35.3874L50.7269-33.9814C51.2322-32.1339 52.0574-31.1534 54.1334-30.3953L70.4664-24.3357C74.0029-23.0559 76.866-23.1251 77.8618-25.1764L45.9077-42.3164C44.7027-42.9699 44.9391-43.7573 44.9391-45.5444C44.9391-49.6799 41.6393-52.9841 37.5239-52.9841ZM37.5239-50.7448C40.4258-50.7448 42.7143-48.4607 42.7143-45.5444C42.7143-42.6813 40.4258-40.3685 37.5239-40.3685C34.6952-40.3685 32.3967-42.6813 32.3967-45.5444C32.3967-48.4607 34.6952-50.7448 37.5239-50.7448ZM37.5239-15.0332C42.3869-15.0332 46.2822-18.9472 46.2822-23.8159C46.2822-25.5443 46.1308-25.6358 46.6222-25.8887L79.5095-43.527C78.6353-47.6565 74.4475-47.923 69.9943-46.2744L53.6613-40.2148C51.1821-39.3046 50.0181-37.9754 49.4283-35.7046L49.0765-34.2886C48.95-33.8129 48.7033-33.4999 48.1197-33.1786L43.9522-30.9288C43.7111-30.801 43.6266-30.7609 43.4701-30.7609C42.5524-30.7609 41.4201-32.5498 37.5239-32.5498C32.6896-32.5498 28.8144-28.6502 28.8144-23.8159C28.8144-18.9572 32.6896-15.0332 37.5239-15.0332ZM37.5239-16.3763C41.6393-16.3763 44.9391-19.6804 44.9391-23.8159C44.9391-25.603 44.7027-26.3904 45.9077-27.0439L77.8618-44.1839C76.866-46.2353 74.0029-46.3189 70.4664-45.0246L54.1334-38.965C52.0574-38.2069 51.2178-37.2265 50.7269-35.379L50.3751-33.973C50.1541-33.1246 49.8616-32.5975 48.7295-31.9977L44.4318-29.6777C44.0673-29.4911 43.7988-29.4178 43.4801-29.4178C41.9551-29.4178 40.9933-31.2067 37.5239-31.2067C33.4372-31.2067 30.1575-27.917 30.1575-23.8159C30.1575-19.6904 33.4372-16.3763 37.5239-16.3763ZM37.5239-18.6155C34.6952-18.6155 32.3967-20.8996 32.3967-23.8159C32.3967-26.679 34.6952-28.9919 37.5239-28.9919C40.4258-28.9919 42.7143-26.679 42.7143-23.8159C42.7143-20.8996 40.4258-18.6155 37.5239-18.6155ZM54.4533-34.123C53.7039-34.123 53.0566-34.7647 53.0566-35.5198C53.0566-36.2992 53.7039-36.8978 54.4533-36.8978C55.2328-36.8978 55.8702-36.2992 55.8702-35.5198C55.8702-34.7504 55.2328-34.123 54.4533-34.123Z"/>
  </g>
 </g>
 <g id="LayerTree">
  <g class="monochrome-0 multicolor-0:tintColor hierarchical-0:secondary"/>
  <g class="monochrome-1 multicolor-1:tintColor hierarchical-1:primary">
   <g class="shapeGroupLayer-0"/>
   <g class="shapeGroupLayer-1"/>
   <g class="shapeGroupLayer-2"/>
  </g>
 </g>
</svg>
